<svg width="24" height="24" viewBox="0 0 24 24" fill="none" xmlns="http://www.w3.org/2000/svg">
<path d="M17 3.00001C17.2652 2.73479 17.5826 2.52658 17.9335 2.38668C18.2845 2.24679 18.6612 2.17705 19.0425 2.18001C19.4238 2.18297 19.7998 2.25876 20.1525 2.40212C20.5052 2.54548 20.8273 2.75379 21.0985 3.02501C21.3697 3.29623 21.578 3.61835 21.7214 3.97104C21.8647 4.32374 21.9405 4.69973 21.9435 5.08101C21.9464 5.46229 21.8767 5.83898 21.7368 6.18993C21.5969 6.54089 21.3887 6.85829 21.1235 7.12351L7.50001 20.747L3.00001 21.997L4.25001 17.497L17.8735 3.87351C18.1447 3.60229 18.4668 3.394 18.8195 3.25064C19.1722 3.10728 19.5482 3.03149 19.9295 3.02851C20.3108 3.02555 20.6875 3.09529 21.0385 3.23518C21.3894 3.37508 21.7015 3.58329 21.9667 3.85451L17 3.00001Z" stroke="currentColor" stroke-width="2" stroke-linecap="round" stroke-linejoin="round"/>
</svg>